<svg width="85" height="85" viewBox="0 0 85 85" fill="none" xmlns="http://www.w3.org/2000/svg">
    <g clip-path="url(#clip0_23_81)">
        <circle cx="42.5" cy="42.5" r="42.5" fill="#F7F7F7" />
        <path
            d="M42.5 0C19.0294 0 0 19.3273 0 43.1655C0 63.3921 13.7133 80.3165 32.2008 85C32.0025 84.4173 31.875 83.741 31.875 82.9029V75.5252C30.1502 75.5252 27.2602 75.5252 26.5342 75.5252C23.6265 75.5252 21.041 74.2554 19.7873 71.8957C18.3954 69.2734 18.1546 65.2626 14.705 62.8094C13.6815 61.9928 14.4606 61.0612 15.64 61.1871C17.8181 61.813 19.6244 63.3309 21.3244 65.5827C23.0173 67.8381 23.8142 68.3489 26.9769 68.3489C28.5104 68.3489 30.8054 68.259 32.9658 67.9137C34.1275 64.9173 36.1356 62.1583 38.59 60.8561C24.4375 59.3777 17.6835 52.2266 17.6835 42.518C17.6835 38.3381 19.4367 34.295 22.4152 30.8885C21.4377 27.5072 20.2088 20.6115 22.7906 17.9856C29.1585 17.9856 33.0083 22.1799 33.9327 23.313C37.106 22.2086 40.591 21.5827 44.2531 21.5827C47.9223 21.5827 51.4215 22.2086 54.6019 23.3201C55.5156 22.1942 59.369 17.9856 65.751 17.9856C68.3435 20.6151 67.1004 27.5396 66.1123 30.9137C69.0731 34.313 70.8156 38.3453 70.8156 42.518C70.8156 52.2194 64.0723 59.3669 49.941 60.8525C53.8298 62.9137 56.6667 68.705 56.6667 73.0683V82.9029C56.6667 83.277 56.5852 83.5468 56.5427 83.8669C73.1035 77.9712 85 62 85 43.1655C85 19.3273 65.9706 0 42.5 0Z"
            fill="#1D3557" />
    </g>
    <defs>
        <clipPath id="clip0_23_81">
            <rect width="85" height="85" fill="white" />
        </clipPath>
    </defs>
</svg>
    