<svg width="85" height="85" viewBox="0 0 85 85" fill="none" xmlns="http://www.w3.org/2000/svg">
    <g clip-path="url(#clip0_23_55)">
        <path
            d="M83.3138 18.2011C82.3899 18.8016 81.0733 19.356 80.519 19.9796C80.3111 20.1875 80.1956 20.4185 80.2418 20.6495V23.0285L79.5489 25.3614L78.856 27.6712L78.0937 30.212L76.5231 35.409L74.9986 40.5367L73.8437 44.394C73.8437 44.9946 73.8206 45.5951 73.7744 46.1726C73.6128 48.39 73.1508 50.515 72.4117 52.5014C71.9728 53.7256 71.4416 54.9035 70.7948 56.0122C70.5638 56.4511 70.2867 56.89 70.0095 57.3057C69.0856 58.7609 67.9769 60.1006 66.7527 61.2785C65.8057 62.2256 64.7663 63.1033 63.6345 63.8424C63.6345 63.8424 63.6345 63.8424 63.6114 63.8424C63.4266 64.0041 63.2187 64.1427 62.9878 64.2582C62.2717 64.7432 61.5095 65.159 60.7242 65.5285C60.1929 65.8057 59.6617 66.0367 59.1073 66.2446C58.9918 66.3139 58.8532 66.3601 58.7378 66.4063C57.4212 67.0299 55.8967 67.4457 54.3723 67.6535C54.2799 67.6766 54.2106 67.6766 54.1182 67.6997C53.1943 67.8614 52.2935 68 51.3695 68.0693C50.9538 68.1155 50.5149 68.1386 50.0992 68.1386L48.4592 68.0462L40.5598 67.6304C40.5598 67.6074 40.5367 67.6304 40.5367 67.6304L36.5638 67.4226C36.2636 67.4226 35.9402 67.4226 35.6399 67.3995C34.3926 67.3533 33.1916 67.2147 31.9905 66.9606C31.9674 66.9606 31.9674 66.9606 31.9674 66.9606C29.7731 66.5448 27.6712 65.8057 25.7079 64.8125C24.6223 64.2582 23.5598 63.6345 22.5666 62.9185C22.1508 62.6182 21.7581 62.2948 21.3655 61.9484C20.2568 61.0245 19.2636 60.0313 18.3397 59.015C18.2011 58.8764 18.0856 58.7378 17.9701 58.5992C17.8315 58.4606 17.6929 58.2989 17.5774 58.1603C16.6997 57.0516 15.9606 55.9198 15.36 54.7188C14.8057 53.6563 14.3668 52.5245 14.0204 51.2772C13.8818 50.8383 13.7663 50.4226 13.6739 49.9606C13.6508 49.9375 13.6277 49.8913 13.6277 49.8451C13.3967 48.8981 13.1888 47.9049 13.0734 46.9117C12.9348 46.1495 12.8655 45.3872 12.8655 44.6019C12.8193 44.3016 12.8193 43.9783 12.8193 43.678L17.231 36.8641L21.5503 30.212L23.5136 27.1862L25.2921 24.4606L25.8926 23.5136V21.1345C25.9388 20.6033 25.9619 20.0489 25.9388 19.5408C25.9157 17.9239 25.5924 16.3533 25.0611 14.8519C24.553 13.2582 23.8369 11.7568 23.0978 10.3709C22.2201 8.77718 21.2962 7.34512 20.5339 6.05164C19.4022 4.15762 18.6168 2.61006 18.8247 1.52446C20.4878 1.1318 22.2432 0.92392 24.0217 0.92392H60.9782C70.6331 0.92392 78.9483 6.92936 82.3899 15.3832C82.7595 16.284 83.0829 17.231 83.3138 18.2011Z"
            fill="#1D3557" />
        <path
            d="M84.0761 24.0217V24.6454L80.8886 26.4932L78.856 27.6712L76.6155 28.9647L72.1345 31.5747L67.7459 34.1155L63.2649 36.7024L61.4864 37.7419C61.4864 38.8505 61.2092 39.8669 60.7011 40.7908C59.9851 42.1304 58.784 43.2391 57.2595 44.1861C55.712 45.1332 53.8179 45.8954 51.6929 46.4497C51.6929 46.4497 51.6929 46.4266 51.6698 46.4497C43.447 48.5747 32.2215 47.6046 26.7704 43.5394C25.2459 42.4076 24.1834 41.0217 23.7215 39.428C23.5829 38.8967 23.5136 38.3193 23.5136 37.7419V21.1345C23.5367 20.788 23.3057 20.4416 22.8899 20.0951C21.6427 19.1019 18.7092 18.1549 15.4293 17.2079C12.8655 16.4919 10.1168 15.7758 7.80706 15.0829C5.98233 14.5285 4.43478 13.9742 3.51086 13.4429C3.92663 12.6345 4.41168 11.8261 4.91983 11.0639C8.15353 6.32881 13.0965 2.84104 18.8247 1.52446C20.4878 1.1318 22.2432 0.92392 24.0217 0.92392H48.9674C61.3709 3.09512 72.8044 8.15354 82.3899 15.3832C82.7595 16.284 83.0829 17.231 83.3139 18.2011C83.7296 19.7255 83.9837 21.2962 84.053 22.9361C84.0761 23.2826 84.0761 23.6522 84.0761 24.0217Z"
            fill="#1D3557" />
        <path
            d="M84.0761 24.0217V34.2079L83.5679 35.7785L81.8356 41.1603L80.034 46.7038L79.087 49.6603L78.2093 52.409L77.3546 55.019L76.5231 57.606L76.0843 58.9687L75.5068 60.7704C75.5068 62.5258 75.4606 64.0734 75.3451 65.3899C75.322 65.5285 75.2989 65.6671 75.2989 65.8057C75.1603 67.0299 74.9756 68.0693 74.6753 68.947C74.6522 69.0856 74.606 69.2242 74.5598 69.3397C73.9593 71.0027 73.0584 72.0652 71.7188 72.7581C71.3954 72.9429 71.0258 73.0815 70.6332 73.2201C69.409 73.6358 67.8614 73.8437 65.9674 73.9592C64.5815 74.0516 62.9878 74.0747 61.1862 74.0747H59.5924L56.8438 73.9592L56.3587 73.9361L51.3465 73.7282L46.265 73.5204L29.519 72.8274L25.1766 72.6426H24.5761C22.7745 72.6195 21.2269 72.5041 19.8872 72.3193C17.947 72.019 16.4457 71.5109 15.3139 70.7486C13.697 69.7092 12.75 68.1848 12.1957 66.0598C12.0571 65.5516 11.9416 65.0204 11.8723 64.4429C11.6413 63.1032 11.5258 61.5557 11.4565 59.8234C11.4565 59.4769 11.4565 59.1304 11.4334 58.7609C11.4103 58.7378 11.4334 58.7378 11.4334 58.7378V57.3981C11.4103 56.7282 11.4103 56.0353 11.4103 55.3193L11.5258 51.6005L11.5951 48.9443L11.6875 45.8492V45.4103L11.8492 39.7282L12.0109 34.0462L12.1726 28.7106L12.3112 23.4674L12.3573 22.0815C12.3573 21.3655 9.93208 20.9497 7.22963 20.6032C5.08153 20.3261 2.72556 20.072 1.31659 19.7486C1.43208 19.2174 1.54757 18.6861 1.68615 18.178C2.10192 16.5149 2.72556 14.9443 3.51088 13.4429C3.92664 12.6345 4.4117 11.8261 4.91985 11.0638C9.90898 8.86955 15.106 7.16031 20.534 6.05162C25.2921 5.05841 30.2582 4.52716 35.3859 4.52716C52.3859 4.52716 68.0924 10.2785 80.519 19.9796C81.7201 20.9035 82.8981 21.8967 84.053 22.9361C84.0761 23.2826 84.0761 23.6522 84.0761 24.0217Z"
            fill="#1D3557" />
        <path
            d="M84.0761 29.4959V39.9823L82.8057 42.4307L80.3804 47.1658L79.0869 49.6603L77.909 51.947L77.4008 52.9402C77.4008 53.6563 77.4008 54.3492 77.3546 55.019C77.3546 56.0122 77.3084 56.9592 77.2391 57.837C77.1467 58.8764 77.0081 59.8234 76.8695 60.7011C76.5231 62.5258 76.038 64.0965 75.3451 65.39C75.2527 65.5516 75.1603 65.7133 75.0679 65.8519C74.8138 66.2677 74.5136 66.6603 74.1902 67.0299C73.7744 67.5381 73.3125 67.9769 72.7812 68.3465C71.9959 68.947 71.072 69.4321 70.0095 69.8016C68.6929 70.2867 67.1685 70.6101 65.3668 70.7948C64.1888 70.9103 62.8954 70.9796 61.4864 70.9796L60.5163 71.0258L55.7119 71.303H55.6888L50.5842 71.6033L45.3872 71.9035L38.2269 72.3193L29.519 72.8275L28.2486 72.8968C27.0706 72.8968 25.9619 72.8275 24.8994 72.6889C24.7839 72.6658 24.6916 72.6427 24.5761 72.6427C23.0054 72.3886 21.5733 71.9728 20.2799 71.3954C18.7092 70.7025 17.3464 69.7785 16.1916 68.6699C15.1752 67.6766 14.2975 66.5448 13.5815 65.2745C13.4198 64.9742 13.2581 64.697 13.1195 64.3737C12.4266 63.0109 11.8723 61.4864 11.4565 59.8234C11.3872 59.5462 11.3179 59.2459 11.2717 58.9457C11.1331 58.4144 11.0176 57.8601 10.9483 57.2826C10.6943 55.8044 10.5557 54.2337 10.4864 52.5938V52.5707C10.4633 51.9008 10.4402 51.2541 10.4402 50.5612L9.3084 47.8587L9.14672 47.4429L9.00813 47.0965L7.27579 42.962L6.99862 42.2921L5.33557 38.2962L3.48775 33.8383C3.48775 33.8383 3.48775 33.8383 3.46465 33.8383L1.59373 29.3342L0.923889 27.6943V24.0218C0.923889 22.5666 1.06248 21.1345 1.31655 19.7487C1.43204 19.2174 1.54753 18.6862 1.68612 18.178C3.64943 17.0462 5.70514 16.0068 7.80704 15.0829C12.6114 12.9348 17.7622 11.341 23.0978 10.3709C27.0706 9.6549 31.2051 9.26224 35.3858 9.26224C52.2704 9.26224 67.5842 15.3832 79.5489 25.3614C80.0108 25.731 80.4497 26.1006 80.8886 26.4932C81.9742 27.4402 83.0367 28.4334 84.0761 29.4959Z"
            fill="#1D3557" />
        <path
            d="M84.0761 36.3791V48.2514L82.7595 51L80.2649 56.197L80.2418 56.2663C80.2418 57.2595 80.1956 58.1603 80.1263 58.9688C79.8954 61.625 79.2486 63.3111 78.1861 64.3505C77.4239 65.1359 76.4769 65.5747 75.2989 65.8057C75.2296 65.8288 75.1372 65.8288 75.0679 65.8519C74.6983 65.9212 74.3057 65.9674 73.8899 65.9674C72.4579 66.106 70.7717 66.0136 68.8315 65.875C68.6236 65.875 68.3926 65.8519 68.1617 65.8288C66.7527 65.7364 65.2513 65.644 63.5883 65.5747C62.6875 65.5516 61.7405 65.5285 60.7704 65.5285H60.7242L58.3913 65.7133H58.3682L53.125 66.0829L47.1426 66.5448L46.2649 66.6141L39.2663 67.1223L35.6399 67.3995L32.0598 67.6535C31.4361 67.6535 30.8356 67.6535 30.235 67.6304C30.235 67.6304 30.2119 67.6073 30.2119 67.6304C27.6019 67.5843 25.269 67.4226 23.1902 67.0299C21.2731 66.7065 19.5869 66.1984 18.1549 65.4361C16.6766 64.7201 15.4524 63.7038 14.4592 62.4103C13.5122 61.1399 12.8193 59.5462 12.3804 57.6291C12.3804 57.606 12.3804 57.606 12.3804 57.606C12.057 56.0584 11.8723 54.2568 11.8723 52.2242L11.5258 51.6006L9.47009 47.928L9.16981 47.4198L9.00813 47.0965L6.86003 43.2853L5.79753 41.3682L4.45786 38.9891L2.14807 34.8546L0.923889 32.6834V24.1834C2.9565 22.8438 5.0584 21.6658 7.2296 20.6033C9.86275 19.2636 12.5883 18.1318 15.4293 17.2079C18.5244 16.1916 21.7581 15.3832 25.0611 14.8519C28.4103 14.2976 31.8519 14.0204 35.3858 14.0204C51.0924 14.0204 65.5054 19.6332 76.6155 28.9647C77.1236 29.3573 77.6087 29.7962 78.0937 30.212C80.034 31.9443 81.8818 33.8152 83.5679 35.7785C83.7527 35.9864 83.9375 36.1712 84.0761 36.3791Z"
            fill="#1D3557" />
        <path
            d="M84.0761 44.1399V60.8397C83.5217 60.5163 82.7595 60.1236 81.8125 59.7079C81.3043 59.4538 80.7269 59.1997 80.1263 58.9688C79.2486 58.5761 78.3016 58.2065 77.2391 57.837C77.0081 57.7446 76.7772 57.6753 76.5231 57.606C76.1073 57.4443 75.6685 57.3057 75.2296 57.1671C73.8668 56.7514 72.3655 56.3587 70.7948 56.0122C70.1943 55.8967 69.5706 55.7812 68.947 55.6889C66.9375 55.3424 64.7894 55.1345 62.5489 55.1114C62.3641 55.0883 62.1562 55.0883 61.9714 55.0883L56.0353 55.1345L47.9511 55.1807H47.928L30.6277 55.3193C25.1304 55.3193 21.7581 56.6359 19.7255 57.1671C19.7255 57.1671 19.7024 57.1671 19.7024 57.1902C17.5543 57.7446 16.8845 57.3981 16.6997 53.6332C16.6535 52.5937 16.6304 51.2541 16.6304 49.6141L15.3369 48.6209L13.0733 46.9117L11.6875 45.8492L11.4103 45.6413L7.57606 42.731L6.99862 42.2921L5.79753 41.3682L3.58014 39.7052L0.923889 37.6726V29.8193C1.15487 29.6345 1.36275 29.4728 1.59373 29.3342C4.94291 27.0245 8.52308 25.0611 12.3111 23.4674C15.6834 22.0353 19.2405 20.9035 22.8899 20.0951C23.8831 19.8872 24.8994 19.6793 25.9388 19.5408C29.0108 19.0095 32.1752 18.7554 35.3858 18.7554C49.2676 18.7554 62.0176 23.5829 72.1345 31.5747C73.659 32.7758 75.1372 34.0462 76.5231 35.409C78.4171 37.2106 80.1956 39.1277 81.8356 41.1603C82.1589 41.5761 82.4823 41.9918 82.8057 42.4307C83.2445 42.9851 83.6603 43.5625 84.0761 44.1399Z"
            fill="#1D3557" />
        <path
            d="M84.0761 53.4022V60.9783C84.0761 62.4796 83.9375 63.9579 83.6603 65.3899C83.2445 67.5149 82.5285 69.5475 81.5584 71.4416C81.0503 71.5571 80.4728 71.5571 79.8261 71.4647C78.3709 71.2106 76.6617 70.4484 74.8138 69.4552C74.7215 69.4321 74.6291 69.3859 74.5598 69.3397C73.9823 69.0394 73.3818 68.716 72.7812 68.3465C71.557 67.6766 70.2636 66.9375 68.9701 66.2446C68.6929 66.106 68.4157 65.9674 68.1617 65.8288C66.6834 65.0666 65.159 64.3736 63.6345 63.8424C63.6345 63.8424 63.6345 63.8424 63.6114 63.8424C63.288 63.7269 62.9416 63.6114 62.5951 63.519C61.2785 63.1494 59.9388 62.9185 58.6454 62.9185L56.1046 62.1793L44.856 58.9225C44.856 58.9225 44.856 58.9225 44.8329 58.9225L37.9266 56.913H37.9035L34.9008 56.0353C26.216 56.0353 20.8804 59.731 18.2935 58.322C17.2772 57.7908 16.6766 56.4511 16.4687 53.8179C16.3994 53.0788 16.3763 52.2473 16.3763 51.2772L13.6739 49.9606L13.5584 49.9144H13.5353L11.5951 48.9443L9.47009 47.928L9.3084 47.8587L8.91574 47.6508L4.38856 45.4565L0.923889 43.7704V35.8478C1.31655 35.5014 1.73231 35.178 2.14807 34.8546C2.58693 34.5081 3.02579 34.1848 3.46465 33.8383C3.48775 33.8383 3.48775 33.8383 3.48775 33.8383C6.21329 31.875 9.10052 30.1427 12.1725 28.7106C15.7527 27.0014 19.5638 25.6848 23.5136 24.8302C24.091 24.6916 24.6916 24.553 25.2921 24.4606C28.572 23.837 31.9443 23.5136 35.3858 23.5136C47.5584 23.5136 58.7378 27.4633 67.7459 34.1155C70.356 36.0557 72.7812 38.2038 74.9986 40.5367C76.8233 42.4538 78.5095 44.5326 80.034 46.7038C80.1494 46.8655 80.2649 47.0272 80.3804 47.1658C81.235 48.413 82.0204 49.6834 82.7595 51C83.2445 51.7853 83.6603 52.5937 84.0761 53.4022Z"
            fill="#1D3557" />
        <path
            d="M83.6603 65.3899C83.2445 67.5149 82.5285 69.5476 81.5584 71.4416C81.1195 72.2962 80.6345 73.1046 80.1032 73.8899C79.7799 74.375 79.4334 74.837 79.0869 75.2758C78.2554 74.9524 77.0312 74.4905 75.5299 73.9823C75.5299 73.9823 75.5299 73.9823 75.5299 73.9592C74.3981 73.5666 73.1046 73.1508 71.7187 72.7582C71.3261 72.6427 70.9334 72.5272 70.5176 72.4117C68.8777 71.9728 67.1685 71.5802 65.5054 71.3492C64.1195 71.1182 62.7568 70.9796 61.4864 70.9796L60.4239 70.6794H60.4008L54.8111 69.0625L51.3695 68.0693L47.5353 66.9606H47.5122L46.2649 66.6141L31.182 62.2717L26.8396 61.0245L23.606 60.2622L18.3397 59.0149L17.6929 58.8533C17.6929 58.8533 17.6929 58.8533 17.6698 58.8533L12.3804 57.6291C12.3804 57.606 12.3804 57.606 12.3804 57.606L11.4334 57.3981L10.9483 57.2826L7.09101 56.3818L6.65215 56.2663L3.37226 53.5639L0.923889 51.5082V42.0842C1.77851 41.2527 2.65623 40.4674 3.58014 39.7052C3.85731 39.4511 4.15759 39.2201 4.45786 38.9891C4.73503 38.7582 5.0353 38.5272 5.33557 38.2962C7.43748 36.7024 9.65487 35.2704 12.0108 34.0462C15.0136 32.4293 18.2011 31.1359 21.5502 30.212C22.197 30.0041 22.8437 29.8193 23.5136 29.6807C27.3016 28.7337 31.2744 28.2486 35.3858 28.2486C45.7106 28.2486 55.3193 31.3668 63.2649 36.7024C67.2147 39.3587 70.7717 42.5462 73.7744 46.1726C75.2989 47.9973 76.6848 49.9144 77.909 51.947C78.0244 52.1087 78.1168 52.2473 78.2092 52.409C78.9483 53.6332 79.6413 54.9035 80.2649 56.197C80.8424 57.3519 81.3505 58.5068 81.8125 59.7079C82.5516 61.5557 83.1522 63.4497 83.6603 65.3899Z"
            fill="#1D3557" />
        <path
            d="M80.1032 73.8899C79.7799 74.375 79.4334 74.837 79.0869 75.2758C78.0706 76.5462 76.9619 77.7011 75.7146 78.7174C74.6291 79.6182 73.4742 80.4266 72.25 81.1196C71.788 81.0041 71.3261 80.8655 70.841 80.6807C69.3166 80.1495 67.7228 79.2717 66.2445 78.3478C64.0271 76.9389 62.11 75.4144 61.2554 74.7215C60.932 74.4443 60.7704 74.3057 60.7704 74.3057L56.8437 73.9592L56.3587 73.913L51.2771 73.4742L46.0108 73.0122L38.2269 72.3193L25.8926 71.2337L25.8464 71.2106L21.5041 69.1087L17.1155 66.9837L13.5815 65.2745L12.8193 64.9049L11.8723 64.4429L8.59237 62.8492L4.22688 60.7473L2.86411 60.0774L0.923889 59.4769V49.1522C2.00949 47.8587 3.16438 46.6345 4.38856 45.4565C5.17389 44.7174 6.00541 43.9783 6.86003 43.2853C6.99862 43.1698 7.1372 43.0543 7.27579 42.962C7.36818 42.8465 7.48367 42.7772 7.57606 42.731C8.93883 41.6223 10.3709 40.6291 11.8492 39.7283C13.5584 38.6427 15.36 37.6726 17.231 36.8641C19.2405 35.9633 21.3424 35.2011 23.5136 34.6236C27.2785 33.5611 31.2744 33.0068 35.3858 33.0068C44.8098 33.0068 53.5176 35.8709 60.7011 40.7908C65.2975 43.9321 69.2704 47.9049 72.4117 52.5014C73.4511 53.9796 74.375 55.5503 75.2296 57.1671C75.5299 57.7677 75.8301 58.3682 76.0842 58.9687C76.3614 59.5462 76.6155 60.1236 76.8695 60.7011C77.3546 61.9022 77.7934 63.1033 78.1861 64.3505C78.9252 66.6603 79.4796 69.0163 79.8261 71.4647C79.9416 72.2731 80.0339 73.0815 80.1032 73.8899Z"
            fill="#1D3557" />
        <path
            d="M75.7377 78.1168C75.7377 78.3016 75.7378 78.5095 75.7147 78.7174C74.6291 79.6182 73.4742 80.4266 72.25 81.1196C71.7418 81.3967 71.2337 81.6739 70.7024 81.9049C70.1712 82.159 69.6399 82.3899 69.0856 82.5978C68.3002 82.1821 67.2378 81.6739 66.106 81.1889C64.5122 80.4728 62.7799 79.8261 61.4402 79.6182C61.1168 79.5489 60.8166 79.5258 60.5394 79.5258L56.7513 79.0408H56.7051L51.9932 78.4171L47.235 77.7935L45.0176 77.5163L27.5557 75.2527C26.4239 75.2527 25.2228 75.1834 23.9755 75.0217C22.4511 74.8832 20.8573 74.6522 19.2636 74.3288C17.6929 74.0516 16.0992 73.6821 14.5747 73.2894C12.981 72.9198 11.4103 72.481 9.95514 72.0652C8.269 71.5571 6.69835 71.072 5.38177 70.6332C4.29617 70.2867 3.37226 69.9633 2.65623 69.7092C2.24047 68.716 1.894 67.6766 1.63992 66.6141C1.15487 64.8125 0.923889 62.9185 0.923889 60.9783V57.1209C1.66302 55.8967 2.47144 54.6957 3.37226 53.5639C5.0122 51.3927 6.88313 49.4063 8.91574 47.6508C8.98503 47.5584 9.07742 47.4891 9.14672 47.4429L9.16981 47.4198C9.88585 46.7731 10.625 46.1957 11.4103 45.6413C11.5027 45.5489 11.5951 45.4796 11.6875 45.4103C12.057 45.1332 12.4497 44.856 12.8655 44.6019C16.1685 42.3614 19.8179 40.606 23.7214 39.428C27.4171 38.3193 31.3206 37.7419 35.3858 37.7419C43.447 37.7419 50.9769 40.1209 57.2595 44.1861C61.9022 47.1658 65.8981 51.0924 68.947 55.6889C69.3166 56.2201 69.663 56.7514 70.0095 57.3057C71.6032 60.0082 72.9198 62.9185 73.8899 65.9674C74.0054 66.3139 74.0978 66.6603 74.1902 67.0299C74.375 67.6535 74.5367 68.3003 74.6753 68.947C74.7215 69.1087 74.7676 69.2704 74.8138 69.4552C75.1372 70.9103 75.3682 72.4348 75.5299 73.9592C75.5299 73.9823 75.5299 73.9823 75.5299 73.9823C75.6685 75.3451 75.7377 76.731 75.7377 78.1168Z"
            fill="#1D3557" />
        <path
            d="M70.9796 78.1168C70.9796 78.9253 70.9334 79.803 70.841 80.6807C70.7948 81.0965 70.7486 81.5122 70.7024 81.9049C70.1712 82.159 69.6399 82.3899 69.0856 82.5978C68.0462 82.9905 66.9837 83.3139 65.8981 83.5448C65.159 83.7065 64.3967 83.8451 63.6345 83.9144H63.6114C62.8954 83.4755 62.0639 82.9443 61.2092 82.3438C59.6617 81.2582 58.0448 80.034 56.7514 79.0408C56.7283 79.0177 56.7283 79.0177 56.7052 78.9946C55.3424 77.9552 54.3723 77.1698 54.3723 77.1698L51.9239 77.2622L47.212 77.4239L45.0177 77.5163L36.1943 77.8397L28.7337 78.1168C28.2487 78.1399 27.6712 78.1399 26.9552 78.1168H26.9321C25.962 78.0937 24.8071 78.0245 23.5367 77.909C22.0584 77.7935 20.4416 77.6549 18.8016 77.4932C17.2079 77.3084 15.591 77.1236 14.0435 76.9389C12.3342 76.7541 10.7174 76.5462 9.33153 76.3614C8.24593 76.2228 7.29892 76.1073 6.53669 76.0149C5.88995 75.2758 5.31251 74.5136 4.75816 73.6821C3.92664 72.4348 3.21061 71.1182 2.65626 69.7092C2.2405 68.716 1.89403 67.6766 1.63995 66.6141C2.30979 64.5584 3.18751 62.6182 4.22691 60.7473C5.05843 59.2228 6.02854 57.7677 7.09104 56.3818C8.13044 55.019 9.26224 53.7486 10.4864 52.5938V52.5707C10.8329 52.2242 11.1794 51.9008 11.5258 51.6005C12.1726 51 12.8424 50.4456 13.5353 49.9144H13.5584C13.5815 49.8682 13.6046 49.8682 13.6277 49.8451C14.1821 49.4063 14.7595 49.0136 15.337 48.6209C18.7554 46.288 22.6128 44.5557 26.7704 43.5394C29.519 42.8696 32.4063 42.5 35.3859 42.5C41.2527 42.5 46.7962 43.909 51.6698 46.4497H51.6929C55.8736 48.5978 59.5693 51.5543 62.5489 55.1114C64.1889 57.0054 65.5978 59.0842 66.7527 61.2785C67.5611 62.7568 68.2541 64.3043 68.8315 65.875C68.8777 66.0136 68.9239 66.1291 68.9701 66.2446C69.3628 67.3995 69.7092 68.6005 70.0095 69.8016C70.2174 70.6562 70.3791 71.534 70.5177 72.4117C70.5639 72.6889 70.6101 72.9429 70.6332 73.2201C70.8641 74.8139 70.9796 76.4538 70.9796 78.1168Z"
            fill="#1D3557" />
        <path
            d="M66.2446 78.1168V78.3478C66.2446 79.1331 66.1753 80.1264 66.106 81.1889C66.0367 81.9742 65.9674 82.7826 65.8981 83.5448C65.159 83.7065 64.3968 83.8451 63.6345 83.9144H63.6114C62.7337 84.0299 61.8791 84.0761 60.9783 84.0761H56.9362L56.0584 83.822L51.5082 82.4361L46.8886 81.0503L36.1943 77.8397L31.5748 76.4538C31.5748 76.4538 29.6576 77.216 26.9552 78.1168H26.9321C25.8927 78.4633 24.7609 78.8329 23.5598 79.2024C22.0585 79.6413 20.4647 80.0802 18.894 80.4266C17.2772 80.7962 15.6835 81.0734 14.2514 81.1889C13.8125 81.2351 13.3737 81.2581 12.981 81.2581C11.6875 80.5421 10.4402 79.6875 9.30845 78.7405C8.31524 77.909 7.39133 77.0081 6.53671 76.0149C5.88997 75.2758 5.31253 74.5136 4.75818 73.6821C4.91986 72.6427 5.10465 71.6264 5.38182 70.6331C6.07475 67.8845 7.16035 65.2514 8.59242 62.8492C9.37774 61.4864 10.2555 60.1698 11.2718 58.9457C11.2949 58.8764 11.3642 58.8071 11.4335 58.7609C11.4104 58.7378 11.4335 58.7378 11.4335 58.7378C11.7337 58.3451 12.0571 57.9755 12.3805 57.6291C12.3805 57.606 12.3805 57.606 12.3805 57.606C13.3275 56.5897 14.2976 55.6196 15.3601 54.7187C15.7296 54.4185 16.0761 54.1182 16.4688 53.8179C16.5381 53.7486 16.6074 53.7024 16.6998 53.6331C21.8968 49.6603 28.3873 47.2581 35.3859 47.2581C43.3315 47.2581 50.5612 50.2378 56.0354 55.1345C58.6685 57.5136 60.909 60.3546 62.5951 63.519C62.7337 63.75 62.8723 64.0041 62.9878 64.2581C63.1957 64.6739 63.4036 65.1128 63.5883 65.5747C64.3506 67.2378 64.9511 68.9932 65.3669 70.7948C65.4131 70.9796 65.4593 71.1644 65.5055 71.3492C65.6902 72.2038 65.8519 73.0815 65.9674 73.9592C66.1522 75.322 66.2446 76.7079 66.2446 78.1168Z"
            fill="#1D3557" />
        <path
            d="M61.4864 78.1168C61.4864 78.5788 61.4633 79.087 61.4402 79.6182C61.394 80.4728 61.3247 81.3967 61.2092 82.3438C61.163 82.9212 61.0706 83.4986 60.9782 84.0761H48.3206L45.8723 83.6834L36.3098 82.159L34.947 81.9511L31.8288 81.4429C30.466 81.4429 27.5095 82.0435 24.3913 82.6209C22.7513 82.9212 21.0883 83.2446 19.5869 83.4524C19.4022 83.4755 19.2174 83.4986 19.0557 83.5217H19.0326C17.4157 83.1753 15.8451 82.644 14.3668 81.9511C13.9049 81.7432 13.4429 81.5122 12.981 81.2582C11.6875 80.5421 10.4402 79.6875 9.3084 78.7405C9.28531 78.4633 9.26221 78.2323 9.26221 78.1168C9.26221 77.5163 9.28531 76.9389 9.3315 76.3614C9.42389 74.8832 9.63177 73.4511 9.95514 72.0652C10.4633 69.9633 11.2024 67.9307 12.1956 66.0598C12.3804 65.6671 12.5883 65.2745 12.8193 64.9049C12.9117 64.7201 13.0272 64.5584 13.1195 64.3736C13.5353 63.7038 13.9973 63.0571 14.4592 62.4103C15.4293 61.1399 16.5149 59.9389 17.6698 58.8533C17.6929 58.8533 17.6929 58.8533 17.6929 58.8533C17.7853 58.7609 17.8777 58.6685 17.9701 58.5992C18.0856 58.5068 18.178 58.3913 18.2935 58.322C18.7554 57.9063 19.2174 57.5367 19.7024 57.1902C19.7024 57.1671 19.7255 57.1671 19.7255 57.1671C24.091 53.9103 29.4959 51.9932 35.3858 51.9932C39.9592 51.9932 44.2092 53.1481 47.928 55.1807H47.9511C51.1386 56.9361 53.9103 59.3152 56.1046 62.1793C56.9592 63.288 57.7215 64.466 58.3682 65.7133H58.3913C58.5068 65.9443 58.6223 66.1753 58.7378 66.4062C59.4307 67.769 59.985 69.2011 60.4008 70.6793H60.4239C60.447 70.7948 60.4932 70.9103 60.5163 71.0258C60.7935 72.019 61.0244 73.0353 61.1861 74.0747C61.2092 74.2826 61.2323 74.5136 61.2554 74.7215C61.4171 75.8302 61.4864 76.962 61.4864 78.1168Z"
            fill="#1D3557" />
        <path
            d="M56.7514 77.8628C56.7514 78.2323 56.7514 78.625 56.7052 78.9946V79.0177C56.7052 79.0408 56.7052 79.0408 56.7052 79.0408C56.659 80.7038 56.428 82.3438 56.0584 83.822C56.0584 83.9144 56.0353 83.9837 55.9891 84.0761H45.2025L36.3098 82.159L35.1318 81.9049L34.947 81.9511L25.0842 83.9837L24.6454 84.0761H24.0217C22.5435 84.0761 21.0883 83.9375 19.6794 83.6603C19.4715 83.6141 19.2636 83.5679 19.0557 83.5217H19.0326C17.4158 83.1753 15.8451 82.644 14.3669 81.9511C14.3207 81.697 14.2745 81.4429 14.2514 81.1889C14.0897 80.1957 14.0204 79.1562 14.0204 78.1168C14.0204 77.7242 14.0204 77.3315 14.0435 76.9389C14.1128 75.6916 14.2976 74.4674 14.5747 73.2894C14.7595 72.4117 15.0136 71.5571 15.3139 70.7486C15.5679 70.0326 15.8682 69.3397 16.1916 68.6698C16.4688 68.0924 16.7921 67.538 17.1155 66.9837C17.4389 66.4524 17.7853 65.9443 18.1549 65.4361C19.0788 64.1658 20.1644 62.9878 21.3655 61.9484C22.0584 61.3478 22.8207 60.7704 23.606 60.2622C26.9783 58.0448 31.0204 56.7514 35.3859 56.7514C36.2405 56.7514 37.072 56.7976 37.8804 56.913H37.9266C40.3981 57.1902 42.7079 57.8832 44.8329 58.9226C44.856 58.9226 44.856 58.9226 44.856 58.9226C48.2052 60.5625 51.0462 63.034 53.125 66.0829C53.4715 66.591 53.8179 67.1454 54.1182 67.6997C54.3723 68.1386 54.6033 68.6005 54.8111 69.0625C55.1345 69.7785 55.4348 70.5408 55.6889 71.303H55.712C55.966 72.1576 56.197 73.0122 56.3587 73.913V73.9361C56.6128 75.2065 56.7514 76.5231 56.7514 77.8628Z"
            fill="#1D3557" />
        <path
            d="M51.9932 78.3478V78.4171C51.9932 79.7799 51.8315 81.1196 51.5081 82.4361C51.3927 82.9905 51.231 83.5448 51.0231 84.0761H40.6753L35.3859 82.6209L30.0965 84.0761H24.0217C22.5435 84.0761 21.0883 83.9375 19.6793 83.6603C19.6331 83.591 19.6101 83.5217 19.587 83.4524C19.2636 82.4592 19.0095 81.466 18.894 80.4266C18.8016 79.7568 18.7554 79.0639 18.7554 78.3478C18.7554 78.0707 18.7554 77.7704 18.8016 77.4932C18.8247 76.4076 18.9864 75.3451 19.2636 74.3288C19.4022 73.6359 19.6101 72.966 19.8872 72.3193C19.9796 71.9959 20.1182 71.6956 20.2799 71.3954C20.6264 70.6101 21.0421 69.8478 21.5041 69.1087C22.0122 68.3696 22.5666 67.6766 23.1902 67.0299C23.9293 66.1984 24.7609 65.4361 25.7079 64.8125C27.3247 63.6345 29.1726 62.7568 31.1821 62.2717C32.5217 61.9022 33.9307 61.7174 35.3859 61.7174C40.0054 61.7174 44.1399 63.5652 47.1427 66.5448C47.2582 66.6603 47.3967 66.7989 47.5122 66.9606H47.5353C47.8587 67.3071 48.159 67.6535 48.4592 68.0462C49.3139 69.1318 50.0299 70.3098 50.5842 71.6033C50.8614 72.2038 51.0924 72.8274 51.2772 73.4742C51.3003 73.5666 51.3234 73.6359 51.3465 73.7283C51.6698 74.8601 51.8777 76.038 51.9239 77.2622C51.9701 77.6087 51.9932 77.9783 51.9932 78.3478Z"
            fill="#1D3557" />
        <path
            d="M47.2582 78.3478C47.2582 79.2948 47.1427 80.1957 46.8886 81.0503C46.6576 81.9742 46.3112 82.8519 45.8723 83.6834C45.803 83.822 45.6413 84.0761 45.6413 84.0761H25.1305C25.1074 84.053 25.0843 84.0068 25.0843 83.9837C24.8071 83.5448 24.5761 83.106 24.3913 82.6209C23.9294 81.5584 23.6522 80.4035 23.5598 79.2025C23.5136 78.9253 23.5136 78.625 23.5136 78.3478C23.5136 78.2092 23.5136 78.0476 23.5367 77.909C23.5598 76.8927 23.6984 75.9226 23.9756 75.0218C24.2065 74.1902 24.5068 73.428 24.8995 72.6889C24.8995 72.6889 24.9226 72.6658 24.9226 72.6427C25.1998 72.1576 25.5 71.6726 25.8465 71.2106C26.9783 69.6862 28.4796 68.4389 30.212 67.6304C30.2351 67.6304 30.2351 67.6304 30.2351 67.6304C30.7894 67.3533 31.3669 67.1223 31.9674 66.9606C31.9674 66.9606 31.9674 66.9606 31.9905 66.9606C33.053 66.6372 34.2079 66.4756 35.3859 66.4756C36.7487 66.4756 38.0652 66.6834 39.2663 67.1223C39.7052 67.2378 40.1209 67.4226 40.5367 67.6304C40.5367 67.6304 40.5367 67.6304 40.5598 67.6304C42.5462 68.5775 44.2324 70.0557 45.3873 71.9035C45.6182 72.25 45.8261 72.6196 46.0109 73.0122C46.1033 73.1739 46.1957 73.3587 46.265 73.5204C46.7962 74.7215 47.1196 76.038 47.212 77.4239C47.2351 77.5394 47.2351 77.6549 47.2351 77.7935C47.2582 77.9783 47.2582 78.1631 47.2582 78.3478Z"
            fill="#1D3557" />
        <path
            d="M58.6685 26.3315C59.9441 26.3315 60.9783 25.2974 60.9783 24.0218C60.9783 22.7461 59.9441 21.712 58.6685 21.712C57.3928 21.712 56.3587 22.7461 56.3587 24.0218C56.3587 25.2974 57.3928 26.3315 58.6685 26.3315Z"
            fill="#F7F7F7" />
        <path
            d="M42.5 56.3587C50.1539 56.3587 56.3587 50.1539 56.3587 42.5C56.3587 34.846 50.1539 28.6413 42.5 28.6413C34.846 28.6413 28.6413 34.846 28.6413 42.5C28.6413 50.1539 34.846 56.3587 42.5 56.3587Z"
            stroke="#F7F7F7" stroke-width="2.5" stroke-miterlimit="10" stroke-linecap="round"
            stroke-linejoin="round" />
        <path
            d="M56.3587 12.4728H28.6413C19.6332 12.4728 12.4728 19.6332 12.4728 28.6413V56.3587C12.4728 65.3669 19.6332 72.5272 28.6413 72.5272H56.3587C65.3669 72.5272 72.5272 65.3669 72.5272 56.3587V28.6413C72.5272 19.6332 65.3669 12.4728 56.3587 12.4728Z"
            stroke="#F7F7F7" stroke-width="2.5" stroke-miterlimit="10" stroke-linecap="round"
            stroke-linejoin="round" />
    </g>
    <defs>
        <clipPath id="clip0_23_55">
            <rect width="85" height="85" fill="white" />
        </clipPath>
    </defs>
</svg>
    