<svg width="85" height="85" viewBox="0 0 85 85" fill="none" xmlns="http://www.w3.org/2000/svg">
    <g clip-path="url(#clip0_122_126)">
        <path
            d="M42.5 0.449738C30.7655 0.449738 14.769 0.65527 11.5369 0.964913C7.88252 3.33884 0.685774 11.5337 0.615967 13.9115V17.8462C0.615967 22.8311 4.86796 27.209 8.72828 27.209C13.3669 27.209 17.236 22.9994 17.236 18.003C17.236 22.9994 20.9619 27.209 25.6005 27.209C30.2392 27.209 33.856 22.9994 33.856 18.003C33.856 22.9994 37.8205 27.209 42.4591 27.209H42.5477C47.1864 27.209 51.1509 22.9994 51.1509 18.003C51.1509 22.9994 54.7644 27.209 59.3995 27.209C64.0382 27.209 67.7709 22.9994 67.7709 18.003C67.7709 22.9994 71.6331 27.209 76.2718 27.209C80.1286 27.209 84.3841 22.8311 84.3841 17.8462V13.9115C84.3143 11.5376 77.1175 3.33884 73.4631 0.964913C62.1056 0.525297 54.2345 0.449738 42.5 0.449738ZM33.7196 29.643C33.2764 30.4878 32.7258 31.2622 32.0835 31.9426C30.3314 33.8158 27.9326 34.9814 25.2869 34.9814C22.7425 34.9852 20.2951 33.8922 18.4767 31.9426C17.8414 31.2622 17.3622 30.5365 16.9224 29.6878C16.4826 30.5365 15.8637 31.2584 15.2249 31.9426C13.4065 33.8922 10.9591 34.9852 8.41469 34.9814C8.09707 34.9814 7.76996 34.883 7.5012 34.7798C7.12774 39.0307 7.04577 40.7469 6.98992 43.7095V43.7245C6.98294 45.2306 6.97645 46.4691 6.96947 48.1893C7.04277 57.1116 6.16424 77.1069 10.5621 82.0192C17.3787 83.7547 29.9174 84.5464 42.5 84.5503C55.0827 84.5464 67.6214 83.7511 74.438 82.0117C78.8358 77.0995 77.9573 57.1003 78.0306 48.1819C78.0236 46.4616 78.0171 45.2306 78.0101 43.7245V43.7095C77.9543 40.7469 77.7223 39.0307 77.3489 34.7798C77.0801 34.8792 76.7462 34.974 76.4286 34.974C73.8841 34.9778 71.4368 33.8922 69.6183 31.9426C68.9831 31.2622 68.371 30.5365 67.9277 29.6878H67.9209C67.4776 30.5365 66.9983 31.2622 66.3666 31.9426C64.5481 33.8922 62.1008 34.9814 59.5563 34.9814C56.9106 34.9814 54.5119 33.8196 52.7597 31.9426C52.121 31.2622 51.5772 30.4878 51.1304 29.643C50.6906 30.4878 50.1465 31.2622 49.5148 31.9426C47.6963 33.8922 45.249 34.9814 42.7045 34.9814C42.6138 34.9814 42.5158 34.9778 42.425 34.974C42.3343 34.9778 42.2398 34.9814 42.1455 34.9814C39.6011 34.9852 37.1538 33.8922 35.3353 31.9426C34.7 31.2622 34.1559 30.4878 33.7196 29.643ZM28.4228 41.1411V41.1486C30.9079 41.1524 33.117 41.1504 35.8534 44.4188C38.0047 44.1706 40.251 44.042 42.5 44.0455H42.5068C44.7558 44.042 47.0021 44.1706 49.1535 44.4188C51.8899 41.1504 54.0921 41.1524 56.5773 41.1486H56.5841V41.1411C57.7568 41.1411 62.4553 41.1404 65.7258 51.2057L69.2366 65.0184C71.8404 75.2901 68.4031 75.5382 64.1169 75.5459C57.7575 75.2859 54.239 70.2327 54.239 65.1752C50.7173 65.8059 46.615 66.1234 42.5068 66.1234C38.3987 66.1234 34.2861 65.8059 30.7679 65.1752C30.7679 70.2327 27.2493 75.2859 20.8899 75.5459C16.6003 75.5382 13.1597 75.2901 15.7635 65.0184L19.2811 51.2057C22.5515 41.1404 27.2465 41.1411 28.4228 41.1411ZM42.5 48.7418C42.4965 48.7495 36.8282 54.4509 35.8125 56.4769L39.521 56.3127V59.8517C39.521 60.0161 41.0131 59.958 42.5 59.8816C43.9904 59.958 45.4791 60.0161 45.4791 59.8517V56.3127L49.1876 56.4769C48.1719 54.4471 42.5 48.7418 42.5 48.7418Z"
            fill="#1D3557" />
    </g>
    <defs>
        <clipPath id="clip0_122_126">
            <rect width="85" height="85" fill="white" />
        </clipPath>
    </defs>
</svg>
    