<svg width="85" height="85" viewBox="0 0 85 85" fill="none" xmlns="http://www.w3.org/2000/svg">
    <path
        d="M85 73.1944C85 79.7158 79.7158 85 73.1944 85H11.8056C5.28653 85 0 79.7158 0 73.1944V11.8056C0 5.28417 5.28653 0 11.8056 0H73.1944C79.7158 0 85 5.28417 85 11.8056V73.1944Z"
        fill="#1D3557" />
    <path
        d="M14.1667 30.6944H25.9722V70.8333H14.1667V30.6944ZM20.034 25.9722H19.9679C16.4452 25.9722 14.1667 23.3467 14.1667 20.0671C14.1667 16.7167 16.516 14.1667 20.1025 14.1667C23.6938 14.1667 25.9061 16.7167 25.9722 20.0671C25.9722 23.3443 23.6938 25.9722 20.034 25.9722ZM70.8334 70.8333H59.0278V49.3496C59.0278 44.1598 56.1354 40.6182 51.4911 40.6182C47.9471 40.6182 46.0299 43.0076 45.0996 45.3168C44.7596 46.1432 44.8611 48.4287 44.8611 49.5833V70.8333H33.0556V30.6944H44.8611V36.8711C46.5635 34.2361 49.2292 30.6944 56.0481 30.6944C64.4961 30.6944 70.831 36.0069 70.831 47.8692L70.8334 70.8333Z"
        fill="#F7F7F7" />
</svg>
    